<svg width="15" height="17" viewBox="0 0 15 17" fill="none" xmlns="http://www.w3.org/2000/svg">
<path fill-rule="evenodd" clip-rule="evenodd" d="M14.8298 11.8724C14.3961 11.1254 13.7515 9.01172 13.7515 6.25108C13.7515 2.7987 10.9528 0 7.50038 0C4.04801 0 1.2493 2.7987 1.2493 6.25108C1.2493 9.0125 0.603876 11.1254 0.170208 11.8724C-0.0552034 12.2589 -0.0568429 12.7364 0.165909 13.1245C0.388661 13.5126 0.801835 13.7521 1.2493 13.7524H4.43813C4.73546 15.2073 6.01542 16.2521 7.50038 16.2521C8.98534 16.2521 10.2653 15.2073 10.5626 13.7524H13.7515C14.1988 13.7518 14.6117 13.5122 14.8343 13.1242C15.0568 12.7362 15.0551 12.2588 14.8298 11.8724ZM7.50038 15.0026C6.70586 15.0023 5.99773 14.5015 5.73289 13.7524H9.26787C9.00304 14.5015 8.2949 15.0023 7.50038 15.0026ZM1.2493 12.5022C1.85097 11.4676 2.49952 9.07032 2.49952 6.25108C2.49952 3.48918 4.73848 1.25022 7.50038 1.25022C10.2623 1.25022 12.5012 3.48918 12.5012 6.25108C12.5012 9.06797 13.1482 11.4653 13.7515 12.5022H1.2493Z" fill="#121717"/>
</svg>
