<svg width="93" height="16" viewBox="0 0 93 16" fill="none" xmlns="http://www.w3.org/2000/svg">
<g clip-path="url(#clip0_12_15)">
<mask id="mask0_12_15" style="mask-type:luminance" maskUnits="userSpaceOnUse" x="0" y="0" width="93" height="16">
<path d="M93 0H0V16H93V0Z" fill="white"/>
</mask>
<g mask="url(#mask0_12_15)">
<path d="M87.8795 15.5531C87.7099 15.6154 87.5383 15.6718 87.3648 15.7224C85.4063 16.277 82.7911 16.0198 81.0141 15.0046C80.7722 14.8664 80.3878 14.6341 80.317 14.3463C80.3116 14.324 80.3076 14.3013 80.3024 14.2789C80.2957 14.25 80.288 14.2212 80.2813 14.1922C80.1048 13.4277 80.1821 12.559 80.1823 11.7762L80.186 8.47644L80.1823 4.83352C80.1818 4.18336 80.1529 3.51655 80.1935 2.86823C80.2089 2.62152 80.2328 2.17547 80.375 1.97914C81.1344 0.930605 83.5184 0.395147 84.7331 0.292876C85.8614 0.202606 87.0389 0.432335 88.0794 0.865524C90.0248 1.6545 91.5703 3.19352 92.3671 5.13525C93.1748 7.11201 93.1261 9.44174 92.2992 11.4036C91.4652 13.3818 89.8351 14.7503 87.8795 15.5531Z" fill="#1098F7"/>
<path d="M5.71793 15.6434C4.7955 15.4233 3.87794 14.9615 3.11674 14.4009C1.46035 13.2006 0.363715 11.3782 0.0789948 9.35289C-0.230642 7.23613 0.229849 5.10434 1.5329 3.38975C2.87602 1.6224 4.80664 0.629749 6.98057 0.344344C7.1045 0.332884 7.22853 0.323262 7.35278 0.31537C8.56124 0.240775 11.3239 0.604558 12.1871 1.50251C12.3563 1.67861 12.4002 2.19656 12.4197 2.44456C12.5192 3.70997 12.4366 5.03148 12.4375 6.30326L12.4438 13.2061C12.4406 13.5608 12.4628 14.3182 12.1912 14.5697C12.1747 14.585 12.1574 14.5992 12.1407 14.6141C11.9844 14.7541 11.83 14.8799 11.65 14.9892C10.0615 15.9548 7.48601 16.081 5.71793 15.6434Z" fill="#47E5BC"/>
<path d="M29.1726 15.6322C24.9924 16.038 21.2722 12.9848 20.8562 8.80678C20.44 4.62873 23.485 0.902243 27.6632 0.476189C31.8559 0.0486212 35.599 3.10549 36.0166 7.29792C36.4341 11.4904 33.3673 15.2249 29.1726 15.6322ZM28.2468 4.3177C26.1659 4.46905 24.6062 6.28559 24.772 8.36484C24.9377 10.4441 26.7652 11.9908 28.844 11.811C30.9026 11.6328 32.4317 9.82711 32.2676 7.76786C32.1035 5.70862 30.3078 4.16776 28.2468 4.3177Z" fill="#898980"/>
<path d="M17.4595 15.3824C16.7007 15.6565 15.9026 15.8054 15.0962 15.8232C14.7773 15.8287 14.3533 15.8104 14.1159 15.5654C13.856 15.2969 13.9392 13.5393 13.9424 13.0739C13.9441 12.8282 13.9192 12.3224 14.0433 12.1069C14.2617 11.7278 15.3407 11.9888 15.7876 11.5141C15.9735 11.3167 16.0701 11.0567 16.1073 10.7917C16.2649 9.66892 16.163 8.42838 16.1621 7.29422L16.1672 0.53833L20.1572 0.546545L20.1634 7.49249C20.1643 8.79217 20.236 10.1309 20.1167 11.4245C20.0626 12.0103 19.9493 12.5989 19.7321 13.1475C19.3082 14.2183 18.4966 14.9287 17.4595 15.3824Z" fill="black"/>
<path d="M36.6284 15.3994C36.656 10.4499 36.6564 5.50028 36.63 0.550876L40.5021 0.550227C41.7181 0.550551 43.0381 0.449145 44.2213 0.759956C45.2606 1.03282 46.205 1.71747 46.7402 2.65596C47.2077 3.47563 47.3675 4.56352 47.0943 5.47293C46.8166 6.39725 46.1472 6.86525 45.3344 7.28331C45.5944 7.34925 45.8578 7.41423 46.1084 7.51077C46.9058 7.8232 47.5434 8.44385 47.877 9.23239C48.386 10.4429 48.2383 12.0353 47.7562 13.2281C47.6003 13.5499 47.3927 13.8442 47.1417 14.0991C45.5368 15.7324 42.749 15.4072 40.6641 15.4018L36.6284 15.3994ZM40.5708 3.99369L40.5584 6.00861C41.3037 6.02298 42.3861 6.19682 43.0244 5.75098C43.2043 5.47725 43.3534 5.12688 43.2927 4.79131C43.2482 4.54428 43.0561 4.36298 42.8485 4.23974C42.2258 3.8699 41.2744 3.98655 40.5708 3.99369ZM40.5678 9.50461L40.5926 11.8463C41.4895 11.8523 42.9402 12.0536 43.6735 11.5032C43.9113 11.2048 44.0377 10.9811 44.0014 10.5908C43.9723 10.278 43.8776 10.0076 43.6249 9.80796C43.0066 9.3192 41.3643 9.49682 40.5678 9.50461Z" fill="black"/>
<path d="M48.8793 15.3963C48.9192 10.4512 48.8083 5.49329 48.91 0.550796L52.5995 0.538579C53.6837 0.535768 54.8154 0.474907 55.8807 0.700636C56.6 0.852961 57.2977 1.14583 57.8798 1.59966C58.6138 2.17188 59.0509 2.96388 59.1669 3.88507C59.345 5.2988 59.0333 6.1975 58.1657 7.30604C59.1335 8.07339 59.8753 9.05253 60.0762 10.295C60.2704 11.4966 59.9547 12.6698 59.2513 13.6519C59.1862 13.728 59.1186 13.8009 59.0487 13.8726C57.3404 15.6295 55.1043 15.4148 52.8573 15.3937C51.5314 15.3724 50.2052 15.3733 48.8793 15.3963ZM52.7223 3.94983L52.7217 5.79772C53.4832 5.79977 54.5606 5.94139 55.2324 5.53339C55.4123 5.32983 55.5893 5.05437 55.5852 4.77047C55.5826 4.59069 55.4989 4.45329 55.3645 4.34215C54.7277 3.81545 53.5051 3.94691 52.7223 3.94983ZM52.7435 9.29869C52.7508 10.1092 52.7502 10.9198 52.7418 11.7304C53.7027 11.7425 55.0271 11.9316 55.8518 11.3874C56.1282 11.0939 56.2887 10.8156 56.2859 10.4027C56.2839 10.1072 56.2001 9.83318 55.9753 9.63112C55.3597 9.07772 53.5655 9.29707 52.7435 9.29869Z" fill="black"/>
<path d="M60.0194 15.3637C60.2297 14.344 60.5932 13.3329 60.9056 12.3401C61.3621 10.8559 61.8298 9.37503 62.3086 7.89784C63.0958 5.46433 63.7823 2.97849 64.6222 0.566279C65.9893 0.538063 67.3678 0.524871 68.7344 0.568439C70.1405 5.53493 71.9454 10.389 73.3441 15.3548L69.2081 15.3674C69.0557 14.6574 68.8412 13.9564 68.6718 13.2493L64.537 13.248C64.3841 13.9664 64.1999 14.6778 63.9849 15.3801C62.663 15.3912 61.3411 15.3858 60.0194 15.3637ZM66.5936 6.15298C66.2587 7.39071 65.9085 8.62433 65.5431 9.85352L66.7184 9.86606L67.6299 9.86984C67.4454 9.11925 66.9327 6.67601 66.5936 6.15298Z" fill="#898980"/>
<path d="M74.0293 0.575766L75.4979 0.567227L78.0834 0.561279L78.0816 15.3789L76.6035 15.3731L74.017 15.3718L74.0293 0.575766Z" fill="#898980"/>
</g>
</g>
<defs>
<clipPath id="clip0_12_15">
<rect width="93" height="16" fill="white"/>
</clipPath>
</defs>
</svg>
